<?xml version="1.0" encoding="UTF-8"?>
<svg width="841px" height="360px" viewBox="0 0 841 360" version="1.1" xmlns="http://www.w3.org/2000/svg" xmlns:xlink="http://www.w3.org/1999/xlink">
    <!-- Generator: Sketch 53.2 (72643) - https://sketchapp.com -->
    <title>Magic_Linen_Logo</title>
    <desc>Created with Sketch.</desc>
    <g id="Page-2" stroke="none" stroke-width="1" fill="none" fill-rule="evenodd">
        <g id="Magic_Linen_Logo" fill="#000000" fill-rule="nonzero">
            <path d="M469.574,143.852 C469.534,143.678 469.171,143.62 469.02,143.812 C448.608,169.742 425.792,171.695 425.792,171.695 C425.792,171.695 421.231,158.31 440.268,133.92 C447.189,125.052 455.735,121.427 455.735,121.427 L459.787,130.821 C459.787,130.821 460.075,131.606 460.694,130.904 C462.709,128.62 472.278,118.167 460.71,113.433 C455.448,111.28 448.666,112.896 443.639,114.982 C429.393,120.894 415.878,143.437 415.878,143.437 C415.878,143.437 397.316,159.804 388.91,164.456 C368.486,175.759 361.545,173.875 361.545,173.875 C361.545,173.875 356.984,158.111 365.709,141.652 C370.005,133.549 374.037,127.672 374.037,127.672 C374.037,127.672 372.935,124.211 369.129,122.467 C360.902,118.695 358.272,124.4 354.703,131.093 C349.496,140.857 346.88,149.124 346.435,156.591 C345.482,172.587 355.707,178.339 355.707,178.339 C355.707,178.339 350.045,175.629 341.12,176.192 C335.01,176.577 329.395,177.788 329.395,177.788 C329.395,177.788 330.684,150.513 330.642,148.689 C331.145,142.49 332.394,126.482 332.394,126.482 C332.394,126.482 327.337,116.22 322.281,120.236 C319.358,122.557 314.25,129.011 314.25,129.011 C314.25,129.011 316.332,118.898 307.186,115.552 C302.54,113.852 296.474,114.063 291.347,116.37 C275.483,123.509 259.047,153.954 259.047,153.954 C259.047,153.954 247.597,161 238.9,165.404 C229.54,170.143 220.074,173.551 220.074,173.551 C220.074,173.551 218.13,170.878 219.96,159.897 C221.546,150.379 225.496,141.68 225.496,141.68 C225.496,141.68 224.124,138.084 217.977,137.291 C211.83,136.498 208.855,138.877 208.855,138.877 C208.855,138.877 209.55,135.59 208.211,132.581 C206.594,128.951 201.37,124.129 193.339,126.434 C180.181,130.211 169.138,142.991 163.446,154.542 C150.8,180.206 163.238,187.932 166.542,187.505 C169.579,187.111 173.427,184.638 176.385,181.957 C182.496,176.419 189.207,168.908 194.479,162.574 C198.68,157.527 208.36,147.206 208.36,147.206 C208.36,147.206 201.431,178.531 215.67,182.634 C222.639,184.642 227.588,180.59 235.13,176.256 C245.712,170.176 257.505,160.78 257.505,160.78 C257.505,160.78 254.667,173.009 260.611,179.924 C265.598,185.726 274.083,180.034 278.409,176.276 C285.567,170.057 316.598,136.332 316.598,136.332 L314.25,180.618 C314.25,180.618 263.689,197.326 233.643,249.724 C195.634,316.009 217.2,347.072 231.359,355.862 C250.618,367.819 276.195,347.961 287.01,333.183 C302.621,311.852 318.513,287.4 326.201,230.025 C327.998,216.612 329.12,188.908 329.12,188.908 C329.12,188.908 337.32,185.661 350.01,185.523 C356.286,185.454 364.707,186.844 369.909,190.807 C374.322,194.169 374.519,198.217 374.386,199.891 C374.354,200.291 374.726,201.046 375.35,201.786 C375.608,202.091 375.895,201.257 376,199.625 C376.166,197.042 375.624,192.413 372.252,187.856 C369.853,184.614 366.105,182.7 366.105,182.7 C366.105,182.7 375.67,180.45 382.167,176.949 C405.332,164.468 413.396,151.752 413.396,151.752 C413.396,151.752 409.334,169.017 417.662,177.742 C425.51,185.963 437.83,180.079 442.789,177.749 C454.522,172.236 473.089,159.083 469.574,143.852 Z M168.03,176.027 C168.03,176.027 165.421,161.667 183.005,145.395 C192.969,136.174 196.836,136.174 196.836,136.174 C196.836,136.174 194.184,139.768 196.167,143.139 C197.54,145.473 200.48,145.37 200.48,145.37 L168.03,176.027 Z M268.743,170.901 C268.743,170.901 268.743,159.796 283.219,141.058 C289.813,132.522 298.636,126.335 298.636,126.335 C298.636,126.335 298.233,131.797 301.654,134.028 C306.563,137.23 312.467,132.135 312.467,132.135 L268.743,170.901 Z M284.408,308.022 C269.904,334.285 245.865,359.681 226.901,345.953 C215.768,337.894 210.603,294.115 258.167,236.302 C284.096,204.786 314.094,193.366 314.094,193.366 C314.094,193.366 313.756,254.879 284.408,308.022 Z" id="Shape"></path>
            <path d="M138.463,201.736 C139.69,154.153 170.657,49.06 172.525,38.867 C173.916,31.274 179.416,15.423 173.562,9.569 C165.305,1.312 157.028,6.43 148.997,18.03 C136.783,35.672 67.929,169.146 67.929,169.146 C67.929,169.146 62.912,161.283 62.931,136.98 C62.939,126.645 65.619,97.618 69.158,72.447 C72.532,48.453 77.768,32.795 76.297,25.748 C74.861,18.868 67,17.475 61.875,21.364 C56.335,25.567 52.767,33.484 49.358,39.34 C18.312,92.674 1.556,175.858 0.462,196.798 C-0.05,206.594 -0.199,228.149 12.049,232.471 C17.834,234.513 2.873,223.638 23.848,145.419 C42.884,74.429 67.076,36.059 67.076,36.059 C67.076,36.059 56.024,104.595 55.575,119.244 C55.196,131.615 51.014,171.991 67.076,180.914 C70.165,182.63 76.265,182.061 86.707,158.903 C106.735,114.485 158.093,22.476 158.093,22.476 C158.093,22.476 142.824,92.276 138.858,108.933 C132.375,136.16 127.766,162.686 126.861,183.888 C125.736,210.268 128.643,226.393 131.946,235.475 C134.303,241.958 141.87,259.5 150.689,259.797 C150.997,259.807 151.344,259.293 151.12,258.897 C148.397,254.086 137.638,233.705 138.463,201.736 Z" id="Path"></path>
            <path d="M611.992,191.821 C593.253,190.631 575.141,192.398 558.75,195.688 C528.108,201.838 509.969,211.353 509.969,211.353 C509.969,211.353 541.155,118.228 549.237,94.383 C556.94,71.654 565.929,49.436 574.208,26.905 C581.377,7.397 569.425,1.753 566.892,0.451 C566.452,0.225 566.184,0.874 566.184,0.874 L495.097,216.112 C495.097,216.112 467.025,236.381 467.633,243.774 C467.413,248.213 470.431,254.124 471.516,256.093 C471.752,256.521 472.078,256.42 472.463,255.79 C475.668,250.554 492.961,225.485 537.036,212.741 C573.13,202.304 605.031,200.508 623.493,202.925 C630.91,203.896 636.598,206.755 639.014,210.311 C639.311,210.748 639.745,211.036 639.772,210.541 C640.456,198.236 628.594,192.875 611.992,191.821 Z" id="Path"></path>
            <path d="M838.949,137.29 C839.654,130.772 840.766,118.077 831.735,116.958 C819.453,115.437 797.505,150.179 797.505,150.179 C797.505,150.179 801.074,138.281 800.479,134.514 C799.884,130.747 791.835,131.11 791.835,131.11 C791.835,131.11 786.094,139.122 769.542,150.266 C752.75,161.571 729.485,174.367 727.102,173.55 C721.322,171.568 723.533,154.591 723.533,154.591 C723.533,154.591 763.093,133.919 765.671,119.84 C766.006,118.011 757.273,107.221 752.584,106.951 C745.598,106.548 737.862,110.986 731.759,116.339 C717.936,128.464 701.81,155.517 713.045,173.696 C717.217,180.447 722.832,182.274 728.91,181.84 C748.816,180.419 786.552,143.825 786.552,143.825 C786.552,143.825 782.051,160.894 785.066,171.073 C786.462,175.785 790.116,177.315 792.084,176.44 C793.57,175.779 794.952,172.658 795.687,171.059 C798.864,164.149 803.881,153.858 809.998,143.437 C816.473,132.405 825.069,123.806 825.069,123.806 C825.069,123.806 821.896,147.403 824.684,156.961 C826.535,163.307 832.147,168.227 839.625,171.064 C840.018,171.213 840.42,170.854 840.335,170.442 C837.567,157.122 837.707,148.764 838.949,137.29 Z M752.781,117.857 C755.01,127.477 724.459,148.669 724.459,148.669 C724.459,148.669 739.195,118.694 752.781,117.857 Z" id="Shape"></path>
            <path d="M693.194,152.955 C692.199,143.176 693.322,124.674 693.285,123.717 C693.084,118.477 687.38,118.373 682.763,120.164 C676.682,122.523 672.727,128.502 668.919,133.587 C666.056,137.41 654.725,156.128 654.725,156.128 C654.725,156.128 654.565,152.385 656.534,146.578 C658.408,141.052 660.828,136.197 661.412,135.053 C661.49,134.901 661.458,134.72 661.332,134.605 C660.316,133.685 656.135,129.542 654.195,130.698 C650.164,133.099 640.394,143.189 615.165,158.905 C590.973,173.975 577.786,177.644 577.786,177.644 C577.786,177.644 569.726,172.687 580.736,148.725 C583.543,142.615 590.259,133.973 590.259,133.973 C590.259,133.973 586.95,126.252 581.455,124.798 C576.594,123.512 573.838,127.241 571.54,131.143 C562.197,147.007 551.016,186.269 576.894,185.377 C599.582,184.595 646.198,142.644 646.198,142.644 C646.198,142.644 640.56,157.491 642.629,167.827 C644.094,175.146 649.433,176.742 651.525,172.229 C654.833,165.09 664.402,150.079 667.929,144.046 C675.517,131.066 681.446,126.93 681.446,126.93 C681.446,126.93 677.996,145.85 682.19,158.905 C684.285,165.428 689.404,169.564 696.174,170.825 C696.532,170.892 696.978,170.535 696.845,170.301 C693.699,164.758 693.802,158.932 693.194,152.955 Z" id="Path"></path>
            <path d="M390.167,85.697 C389.274,76.81 374.137,78.777 374.314,87.899 C374.534,99.238 391.213,96.1 390.167,85.697 Z" id="Path"></path>
            <path d="M614.479,82.064 C613.464,71.466 596.802,78.345 597.14,87.018 C597.588,98.546 615.327,90.916 614.479,82.064 Z" id="Path"></path>
        </g>
    </g>
</svg>